<svg width="23" height="21" viewBox="0 0 23 21" fill="none" xmlns="http://www.w3.org/2000/svg">
<path d="M19.0898 8C20.4258 8 22.75 9.13281 22.75 10.5C22.75 11.9062 20.4258 13 19.0898 13H14.5352L10.6094 19.8711C10.3867 20.2617 9.97266 20.5 9.52344 20.5H7.32812C6.91406 20.5 6.61328 20.1016 6.72656 19.7031L8.64062 13H4.625L2.9375 15.25C2.82031 15.4062 2.63281 15.5 2.4375 15.5H0.796875C0.492188 15.5 0.25 15.2539 0.25 14.9531C0.25 14.9023 0.257812 14.8516 0.269531 14.8008L1.5 10.5L0.269531 6.19922C0.253906 6.14844 0.25 6.09766 0.25 6.04688C0.25 5.74219 0.496094 5.5 0.796875 5.5H2.4375C2.63281 5.5 2.82031 5.59375 2.9375 5.75L4.625 8H8.64453L6.73047 1.29688C6.61328 0.898438 6.91406 0.5 7.32812 0.5H9.52344C9.97266 0.5 10.3867 0.742188 10.6094 1.12891L14.5352 8H19.0898Z" fill="white"/>
</svg>
