<svg width="19" height="21" viewBox="0 0 19 21" fill="none" xmlns="http://www.w3.org/2000/svg">
<path d="M4.5 0.5C2.42969 0.5 0.75 2.17969 0.75 4.25V16.75C0.75 18.8203 2.42969 20.5 4.5 20.5H15.75H17C17.6914 20.5 18.25 19.9414 18.25 19.25C18.25 18.5586 17.6914 18 17 18V15.5C17.6914 15.5 18.25 14.9414 18.25 14.25V1.75C18.25 1.05859 17.6914 0.5 17 0.5H15.75H4.5ZM4.5 15.5H14.5V18H4.5C3.80859 18 3.25 17.4414 3.25 16.75C3.25 16.0586 3.80859 15.5 4.5 15.5ZM5.75 6.125C5.75 5.78125 6.03125 5.5 6.375 5.5H13.875C14.2188 5.5 14.5 5.78125 14.5 6.125C14.5 6.46875 14.2188 6.75 13.875 6.75H6.375C6.03125 6.75 5.75 6.46875 5.75 6.125ZM6.375 8H13.875C14.2188 8 14.5 8.28125 14.5 8.625C14.5 8.96875 14.2188 9.25 13.875 9.25H6.375C6.03125 9.25 5.75 8.96875 5.75 8.625C5.75 8.28125 6.03125 8 6.375 8Z" fill="white"/>
</svg>
