<svg width="21" height="21" viewBox="0 0 21 21" fill="none" xmlns="http://www.w3.org/2000/svg">
<path d="M11.6287 1.20312C11.4216 0.773438 10.9841 0.5 10.5037 0.5C10.0232 0.5 9.58961 0.773438 9.37867 1.20312L6.86695 6.37109L1.25758 7.19922C0.788826 7.26953 0.398201 7.59766 0.25367 8.04688C0.109138 8.49609 0.226326 8.99219 0.562263 9.32422L4.63258 13.3516L3.67164 19.043C3.59351 19.5117 3.78883 19.9883 4.17554 20.2656C4.56226 20.543 5.07398 20.5781 5.49586 20.3555L10.5076 17.6797L15.5193 20.3555C15.9412 20.5781 16.4529 20.5469 16.8396 20.2656C17.2263 19.9844 17.4216 19.5117 17.3435 19.043L16.3787 13.3516L20.449 9.32422C20.7849 8.99219 20.906 8.49609 20.7576 8.04688C20.6091 7.59766 20.2224 7.26953 19.7537 7.19922L14.1404 6.37109L11.6287 1.20312Z" fill="white"/>
</svg>
