<svg width="21" height="20" viewBox="0 0 21 20" fill="none" xmlns="http://www.w3.org/2000/svg">
<path d="M7.6875 2.375H13.3125C13.4844 2.375 13.625 2.51562 13.625 2.6875V4.25H7.375V2.6875C7.375 2.51562 7.51562 2.375 7.6875 2.375ZM5.5 2.6875V4.25H3C1.62109 4.25 0.5 5.37109 0.5 6.75V10.5H8H13H20.5V6.75C20.5 5.37109 19.3789 4.25 18 4.25H15.5V2.6875C15.5 1.48047 14.5195 0.5 13.3125 0.5H7.6875C6.48047 0.5 5.5 1.48047 5.5 2.6875ZM20.5 11.75H13V13C13 13.6914 12.4414 14.25 11.75 14.25H9.25C8.55859 14.25 8 13.6914 8 13V11.75H0.5V16.75C0.5 18.1289 1.62109 19.25 3 19.25H18C19.3789 19.25 20.5 18.1289 20.5 16.75V11.75Z" fill="white"/>
</svg>
