<svg width="25" height="15" viewBox="0 0 25 15" fill="none" xmlns="http://www.w3.org/2000/svg">
<path d="M7.5 0C3.35938 0 0 3.35938 0 7.5C0 11.6406 3.35938 15 7.5 15H17.5C21.6406 15 25 11.6406 25 7.5C25 3.35938 21.6406 0 17.5 0H7.5ZM19.375 4.0625C19.7894 4.0625 20.1868 4.22712 20.4799 4.52015C20.7729 4.81317 20.9375 5.2106 20.9375 5.625C20.9375 6.0394 20.7729 6.43683 20.4799 6.72985C20.1868 7.02288 19.7894 7.1875 19.375 7.1875C18.9606 7.1875 18.5632 7.02288 18.2701 6.72985C17.9771 6.43683 17.8125 6.0394 17.8125 5.625C17.8125 5.2106 17.9771 4.81317 18.2701 4.52015C18.5632 4.22712 18.9606 4.0625 19.375 4.0625ZM15.3125 9.375C15.3125 8.9606 15.4771 8.56317 15.7701 8.27015C16.0632 7.97712 16.4606 7.8125 16.875 7.8125C17.2894 7.8125 17.6868 7.97712 17.9799 8.27015C18.2729 8.56317 18.4375 8.9606 18.4375 9.375C18.4375 9.7894 18.2729 10.1868 17.9799 10.4799C17.6868 10.7729 17.2894 10.9375 16.875 10.9375C16.4606 10.9375 16.0632 10.7729 15.7701 10.4799C15.4771 10.1868 15.3125 9.7894 15.3125 9.375ZM6.5625 5.3125C6.5625 4.79297 6.98047 4.375 7.5 4.375C8.01953 4.375 8.4375 4.79297 8.4375 5.3125V6.5625H9.6875C10.207 6.5625 10.625 6.98047 10.625 7.5C10.625 8.01953 10.207 8.4375 9.6875 8.4375H8.4375V9.6875C8.4375 10.207 8.01953 10.625 7.5 10.625C6.98047 10.625 6.5625 10.207 6.5625 9.6875V8.4375H5.3125C4.79297 8.4375 4.375 8.01953 4.375 7.5C4.375 6.98047 4.79297 6.5625 5.3125 6.5625H6.5625V5.3125Z" fill="white"/>
</svg>
