<svg width="23" height="21" viewBox="0 0 23 21" fill="none" xmlns="http://www.w3.org/2000/svg">
<path d="M0.25 1.4375C0.25 0.917969 0.667969 0.5 1.1875 0.5H2.96484C3.82422 0.5 4.58594 1 4.94141 1.75H20.9961C22.0234 1.75 22.7734 2.72656 22.5039 3.71875L20.9023 9.66797C20.5703 10.8945 19.457 11.75 18.1875 11.75H6.91797L7.12891 12.8633C7.21484 13.3047 7.60156 13.625 8.05078 13.625H19.3125C19.832 13.625 20.25 14.043 20.25 14.5625C20.25 15.082 19.832 15.5 19.3125 15.5H8.05078C6.69922 15.5 5.53906 14.5391 5.28906 13.2148L3.27344 2.62891C3.24609 2.48047 3.11719 2.375 2.96484 2.375H1.1875C0.667969 2.375 0.25 1.95703 0.25 1.4375ZM5.25 18.625C5.25 18.3788 5.2985 18.135 5.39273 17.9075C5.48695 17.68 5.62506 17.4733 5.79917 17.2992C5.97328 17.1251 6.17998 16.987 6.40747 16.8927C6.63495 16.7985 6.87877 16.75 7.125 16.75C7.37123 16.75 7.61505 16.7985 7.84253 16.8927C8.07002 16.987 8.27672 17.1251 8.45083 17.2992C8.62494 17.4733 8.76305 17.68 8.85727 17.9075C8.9515 18.135 9 18.3788 9 18.625C9 18.8712 8.9515 19.115 8.85727 19.3425C8.76305 19.57 8.62494 19.7767 8.45083 19.9508C8.27672 20.1249 8.07002 20.263 7.84253 20.3573C7.61505 20.4515 7.37123 20.5 7.125 20.5C6.87877 20.5 6.63495 20.4515 6.40747 20.3573C6.17998 20.263 5.97328 20.1249 5.79917 19.9508C5.62506 19.7767 5.48695 19.57 5.39273 19.3425C5.2985 19.115 5.25 18.8712 5.25 18.625ZM18.375 16.75C18.8723 16.75 19.3492 16.9475 19.7008 17.2992C20.0525 17.6508 20.25 18.1277 20.25 18.625C20.25 19.1223 20.0525 19.5992 19.7008 19.9508C19.3492 20.3025 18.8723 20.5 18.375 20.5C17.8777 20.5 17.4008 20.3025 17.0492 19.9508C16.6975 19.5992 16.5 19.1223 16.5 18.625C16.5 18.1277 16.6975 17.6508 17.0492 17.2992C17.4008 16.9475 17.8777 16.75 18.375 16.75Z" fill="white"/>
</svg>
