<svg width="21" height="18" viewBox="0 0 21 18" fill="none" xmlns="http://www.w3.org/2000/svg">
<path d="M2.35937 10.2343L9.41797 16.8242C9.71094 17.0976 10.0977 17.25 10.5 17.25C10.9023 17.25 11.2891 17.0976 11.582 16.8242L18.6406 10.2343C19.8281 9.12887 20.5 7.57809 20.5 5.957V5.73043C20.5 2.99997 18.5273 0.67184 15.8359 0.222621C14.0547 -0.0742537 12.2422 0.507778 10.9688 1.78122L10.5 2.24997L10.0312 1.78122C8.75781 0.507778 6.94531 -0.0742537 5.16406 0.222621C2.47266 0.67184 0.5 2.99997 0.5 5.73043V5.957C0.5 7.57809 1.17187 9.12887 2.35937 10.2343Z" fill="white"/>
</svg>
