<svg width="21" height="19" viewBox="0 0 21 19" fill="none" xmlns="http://www.w3.org/2000/svg">
<path d="M6.32422 2.03125L5.91797 3.25H3C1.62109 3.25 0.5 4.37109 0.5 5.75V15.75C0.5 17.1289 1.62109 18.25 3 18.25H18C19.3789 18.25 20.5 17.1289 20.5 15.75V5.75C20.5 4.37109 19.3789 3.25 18 3.25H15.082L14.6758 2.03125C14.4219 1.26563 13.707 0.75 12.8984 0.75H8.10156C7.29297 0.75 6.57812 1.26563 6.32422 2.03125ZM10.5 7C11.4946 7 12.4484 7.39509 13.1517 8.09835C13.8549 8.80161 14.25 9.75544 14.25 10.75C14.25 11.7446 13.8549 12.6984 13.1517 13.4017C12.4484 14.1049 11.4946 14.5 10.5 14.5C9.50544 14.5 8.55161 14.1049 7.84835 13.4017C7.14509 12.6984 6.75 11.7446 6.75 10.75C6.75 9.75544 7.14509 8.80161 7.84835 8.09835C8.55161 7.39509 9.50544 7 10.5 7Z" fill="white"/>
</svg>
